<svg width="27" height="27" viewBox="0 0 27 27" fill="none" xmlns="http://www.w3.org/2000/svg">
<g clip-path="url(#clip0_4730_14102)">
<rect width="27" height="27" rx="6" fill="#EEEEEE"/>
<path d="M13.5 19C14.1188 19 14.625 18.4923 14.625 17.8718H12.375C12.375 18.4923 12.8812 19 13.5 19ZM16.875 15.6154V12.7949C16.875 11.0631 15.9581 9.61333 14.3438 9.22974V8.84615C14.3438 8.37795 13.9669 8 13.5 8C13.0331 8 12.6562 8.37795 12.6562 8.84615V9.22974C11.0475 9.61333 10.125 11.0574 10.125 12.7949V15.6154L9 16.7436V17.3077H18V16.7436L16.875 15.6154ZM15.75 16.1795H11.25V12.7949C11.25 11.3959 12.0994 10.2564 13.5 10.2564C14.9006 10.2564 15.75 11.3959 15.75 12.7949V16.1795Z" fill="black" fill-opacity="0.54"/>
</g>
<defs>
<clipPath id="clip0_4730_14102">
<rect width="27" height="27" rx="6" fill="white"/>
</clipPath>
</defs>
</svg>
