<svg width="27" height="27" viewBox="0 0 27 27" fill="none" xmlns="http://www.w3.org/2000/svg">
<path d="M0 8C0 3.58172 3.58172 0 8 0H19C23.4183 0 27 3.58172 27 8V19C27 23.4183 23.4183 27 19 27H8C3.58172 27 0 23.4183 0 19V8Z" fill="#EEEEEE"/>
<g clip-path="url(#clip0_4730_14095)">
<path d="M8.66669 10.3333H11.3334V7.66666H8.66669V10.3333ZM12.6667 18.3333H15.3334V15.6667H12.6667V18.3333ZM8.66669 18.3333H11.3334V15.6667H8.66669V18.3333ZM8.66669 14.3333H11.3334V11.6667H8.66669V14.3333ZM12.6667 14.3333H15.3334V11.6667H12.6667V14.3333ZM16.6667 7.66666V10.3333H19.3334V7.66666H16.6667ZM12.6667 10.3333H15.3334V7.66666H12.6667V10.3333ZM16.6667 14.3333H19.3334V11.6667H16.6667V14.3333ZM16.6667 18.3333H19.3334V15.6667H16.6667V18.3333Z" fill="black" fill-opacity="0.54"/>
</g>
<defs>
<clipPath id="clip0_4730_14095">
<rect width="16" height="16" fill="white" transform="translate(6 5)"/>
</clipPath>
</defs>
</svg>
